{"tags": ["ffmpeg", "\u30bf\u30a4\u30e0\u30e9\u30d7\u30b9"], "context": "\u30b5\u30af\u30c3\u3068\u4f5c\u308c\u3066\u4e2d\u3005\u4ed5\u4e0a\u304c\u308a\u304c\u826f\u304b\u3063\u305f\u306e\u3067\u5171\u6709\u3057\u307e\u3059\u3002\n\n\u30bf\u30a4\u30e0\u30e9\u30d7\u30b9\u52d5\u753b\u304c\u30cf\u30e4\u3063\u3066\u307e\u3059\u306d\uff01\n\u6700\u8fd1facebook\u306a\u3069\u3092\u898b\u3066\u3044\u308b\u3068\u304a\u6599\u7406\u306e\u30bf\u30a4\u30e0\u30e9\u30d7\u30b9\u52d5\u753b\u306a\u3069\u304c\u3088\u304f\u6d41\u308c\u3066\u304d\u307e\u3059\u3002\n\u306a\u3093\u304b\u30ab\u30c3\u30b3\u3044\u3044\u3067\u3059\u3088\u306d\u3002\n\u50d5\u3082\u4f5c\u3063\u3066\u307f\u305f\u3044\u3067\u3059\u3002\n\u3067\u3082\u3001GoPro\u3068\u304b\u306a\u3044\u306e\u3067\u3001\u65e2\u5b58\u306e\u52d5\u753b\u3092\u306a\u3093\u3068\u304b\u3067\u304d\u306a\u3044\u304b\u3068\u601d\u3063\u305f\u6b21\u7b2c\u3067\u3059\u3002\n\n\u30bf\u30a4\u30e0\u30e9\u30d7\u30b9\u306e\u4ed5\u7d44\u307f\n\u30bf\u30a4\u30e0\u30e9\u30d7\u30b9\u306e\u4ed5\u7d44\u307f\u306f\u30af\u30ec\u30a4\u30a2\u30cb\u30e1\u3068\u540c\u3058\u3067\u3059\u3002\n\u30b3\u30de\u64ae\u308a\u306e\u753b\u50cf\u3092\u7e4b\u3052\u305f\u30d1\u30e9\u30d1\u30e9\u6f2b\u753b\u3067\u3059\u306d\u3002\n\nffmpeg\u3092\u4f7f\u3063\u3066\u5b9f\u73fe\u3059\u308b\u306b\u306f\n\u3055\u3066\u3001\u3053\u3053\u304b\u3089\u304c\u672c\u984c\uff01\n\u30bf\u30a4\u30e0\u30e9\u30d7\u30b9\u306f\u30af\u30ec\u30a4\u30a2\u30cb\u30e1\u306a\u306e\u3067\u3001\n\u6b21\u306e\u624b\u9806\u3067\u666e\u901a\u306e\u52d5\u753b\u3092\u30bf\u30a4\u30e0\u30e9\u30d7\u30b9\u306b\u5909\u63db\u3057\u307e\u3059\u3002\n\n\u65e2\u5b58\u306e\u52d5\u753b\u304b\u3089\u4e00\u5b9a\u9593\u9694\u3067\u30ad\u30e3\u30d7\u30c1\u30e3\u3092\u5207\u308a\u51fa\u3059\u3002\n\u5207\u308a\u51fa\u3057\u305f\u30ad\u30e3\u30d7\u30c1\u30e3\u3092\u307e\u305f\u7e4b\u3052\u308b\u3002\n\n\u4ee5\u4e0a\u3067\u3059\uff01\u7c21\u5358\u3067\u3059\u306d\u3002\n\n\u3055\u3063\u305d\u304f\u30b3\u30de\u30f3\u30c9\n\n\u307e\u305a\u306f\u52d5\u753b\u306e\u9577\u3055\u3092\u8abf\u3079\u307e\u3059\u3002\n\u305a\u3089\u305a\u3089\u3063\u3068\u51fa\u3066\u304d\u307e\u3059\u304c\u3001\u50d5\u304c\u7528\u610f\u3057\u305f\u30c6\u30b9\u30c8\u7528\u306e\u52d5\u753b\u306f10:35\u3067\u3057\u305f\u3002\n$ ffmpeg -i test.MOV \n\nffmpeg version 2.6.8 Copyright (c) 2000-2016 the FFmpeg developers\n\u3000\u3000\u3000\u3000\u3000\u3000\u301c\u4e2d\u7565\u301c\n  Duration: 00:10:35.50, start: 0.000000, bitrate: 8675 kb/s\n    Stream #0:0(eng): Video: h264 (Constrained Baseline) (avc1 / 0x31637661), yuvj420p(pc, smpte170m/bt709/bt709), 640x480, 7136 kb/s, 29.97 fps, 29.97 tbr, 30k tbn, 60k tbc (default)\n    Metadata:\n      creation_time   : 2016-03-16 10:03:11\n    Stream #0:1(eng): Audio: pcm_s16le (sowt / 0x74776F73), 48000 Hz, stereo, s16, 1536 kb/s (default)\n    Metadata:\n      creation_time   : 2016-03-16 10:03:11\n\n\n\u6b21\u306b\u3053\u306e\u52d5\u753b\u304b\u3089\u3001\uff11\u79d2\u304a\u304d\u306b\u30ad\u30e3\u30d7\u30c1\u30e3\u3092\u5207\u308a\u51fa\u3057\u307e\u3059\u3002\nfor i in `seq 1 635`\ndo\n  ffmpeg -ss $i -i test.MOV -vframes 1 -f image2 ./out/test-`printf %04d $i`.jpg\ndone\n\nffmpeg\u306e\u30aa\u30d7\u30b7\u30e7\u30f3\u306f\u4e0b\u8a18\u306e\u3088\u3046\u306b\u306a\u308a\u307e\u3059\u3002\n\n\n\n\u30aa\u30d7\u30b7\u30e7\u30f3\n\u6982\u8981\n\n\n\n\ni\n\u5165\u529b\u30d5\u30a1\u30a4\u30eb\u6307\u5b9a\n\n\nss\n\u4f55\u79d2\u76ee\u304b\u3089\u51e6\u7406\u3059\u308b\u304b\n\n\nvframes\n\u4f55\u30d5\u30ec\u30fc\u30e0\u3092\u5bfe\u8c61\u306b\u3059\u308b\u304b\n\n\nimage2\n\u753b\u50cf\u3068\u3057\u3066\u51fa\u529b\u3059\u308b\n\n\n\n\uff11\u79d2\u76ee\u304b\u3089\uff16\uff13\uff15\u79d2\u76ee\uff08\uff1d\uff11\uff10\u5206\uff13\uff15\u79d2\uff09\u307e\u3067\u3001\uff11\u79d2\u304a\u304d\u306b\u30ad\u30e3\u30d7\u30c1\u30e3\u3092\u5207\u308a\u51fa\u3057\u3001\n\u3055\u3089\u306b\u30bc\u30ed\u57cb\u3081\u306e\u9023\u756a\u3092\u3064\u3051\u3066\u4fdd\u5b58\u3057\u3066\u3044\u307e\u3059\u3002\n\n\u6700\u5f8c\u306b\u753b\u50cf\u3092\u304f\u3063\u3064\u3051\u3066\u52d5\u753b\u306b\u3057\u307e\u3059\u3002\nffmpeg -f image2 -r 15 -i ./out/test-%04d.jpg -r 15 -an -vcodec libx264 -pix_fmt yuv420p ./video-out/test-timeLapse.mp4\n\n\u3053\u3053\u3067\u4f7f\u3063\u3066\u3044\u308bffmpeg\u306e\u30aa\u30d7\u30b7\u30e7\u30f3\n\n\n\n\u30aa\u30d7\u30b7\u30e7\u30f3\n\u5024\n\u6982\u8981\n\n\n\n\nf\nimage2\n\u5165\u529b\u304cjpeg\u753b\u50cf\u3067\u3042\u308b\u3053\u3068\u3092\u901a\u77e5\n\n\nr\uff08\uff11\u3064\u76ee\uff09\n15\n\u5165\u529b\u30d5\u30ec\u30fc\u30e0\u30ec\u30fc\u30c8\u306e\u6307\u5b9a\u3002\u9759\u6b62\u753b\u306e\u66f4\u65b0\u3092\u6bce\u79d215\u30d5\u30ec\u30fc\u30e0\u306b\u6307\u5b9a\u3002\u3053\u3053\u306e\u6570\u5b57\u3092\u5909\u66f4\u3059\u308c\u3070\u30bf\u30a4\u30e0\u30e9\u30d7\u30b9\u52d5\u753b\u306e\u30d5\u30ec\u30fc\u30e0\u30ec\u30fc\u30c8\u3092\u5909\u66f4\u3067\u304d\u308b\u305d\u3046\u3067\u3059\u3002\n\n\ni\n./out/test-%04d.jpg\n\u5165\u529b\u30d5\u30a1\u30a4\u30eb\u3002\u3053\u306e\u66f8\u304d\u65b9\u3067\u9023\u756a\u3067\u753b\u50cf\u3092\u8aad\u307f\u8fbc\u3093\u3067\u304f\u308c\u307e\u3059\n\n\nr\uff08\uff12\u3064\u76ee\uff09\n15\n\u51fa\u529b\u30d5\u30ec\u30fc\u30e0\u30ec\u30fc\u30c8\u306e\u6307\u5b9a\u3060\u305d\u3046\u3067\u3059\u304c\u3001\u8b0e\u3067\u3059\n\n\nan\n\n\u30aa\u30fc\u30c7\u30a3\u30aa\u7121\u3057\n\n\nvcodec\nlibx264\n\u30a8\u30f3\u30b3\u30fc\u30c0\u306fH.264\u3002\n\n\npix_fmt\nyuv420p\n\u753b\u50cf\u5f62\u5f0f\u3092YUV\u5f62\u5f0f\u3067YUV420\u306b\u6307\u5b9a\n\n\n\n\n\u53c2\u8003\n\u4eca\u56de\u53c2\u8003\u306b\u3055\u305b\u3066\u3044\u305f\u3060\u3044\u305f\u30b5\u30a4\u30c8\u69d8\n\u3042\u308a\u304c\u3068\u3046\u3054\u3056\u3044\u307e\u3057\u305f\u3002\nhttp://blog.fumiz.me/2008/10/19/ffmpeg%E3%81%A7%E5%8B%95%E7%94%BB%E3%81%8B%E3%82%89%E7%94%BB%E5%83%8F%E3%82%92%E5%88%87%E3%82%8A%E5%87%BA%E3%81%99/\nhttp://qiita.com/riocampos/items/2f4fe927b5cf99aff767\n\n\n\u30b5\u30af\u30c3\u3068\u4f5c\u308c\u3066\u4e2d\u3005\u4ed5\u4e0a\u304c\u308a\u304c\u826f\u304b\u3063\u305f\u306e\u3067\u5171\u6709\u3057\u307e\u3059\u3002\n\n##\u30bf\u30a4\u30e0\u30e9\u30d7\u30b9\u52d5\u753b\u304c\u30cf\u30e4\u3063\u3066\u307e\u3059\u306d\uff01\n\n\u6700\u8fd1facebook\u306a\u3069\u3092\u898b\u3066\u3044\u308b\u3068\u304a\u6599\u7406\u306e\u30bf\u30a4\u30e0\u30e9\u30d7\u30b9\u52d5\u753b\u306a\u3069\u304c\u3088\u304f\u6d41\u308c\u3066\u304d\u307e\u3059\u3002\n\u306a\u3093\u304b\u30ab\u30c3\u30b3\u3044\u3044\u3067\u3059\u3088\u306d\u3002\n\u50d5\u3082\u4f5c\u3063\u3066\u307f\u305f\u3044\u3067\u3059\u3002\n\n\u3067\u3082\u3001GoPro\u3068\u304b\u306a\u3044\u306e\u3067\u3001\u65e2\u5b58\u306e\u52d5\u753b\u3092\u306a\u3093\u3068\u304b\u3067\u304d\u306a\u3044\u304b\u3068\u601d\u3063\u305f\u6b21\u7b2c\u3067\u3059\u3002\n\n\n##\u30bf\u30a4\u30e0\u30e9\u30d7\u30b9\u306e\u4ed5\u7d44\u307f\n\n\u30bf\u30a4\u30e0\u30e9\u30d7\u30b9\u306e\u4ed5\u7d44\u307f\u306f\u30af\u30ec\u30a4\u30a2\u30cb\u30e1\u3068\u540c\u3058\u3067\u3059\u3002\n\u30b3\u30de\u64ae\u308a\u306e\u753b\u50cf\u3092\u7e4b\u3052\u305f\u30d1\u30e9\u30d1\u30e9\u6f2b\u753b\u3067\u3059\u306d\u3002\n\n\n##ffmpeg\u3092\u4f7f\u3063\u3066\u5b9f\u73fe\u3059\u308b\u306b\u306f\n\n\u3055\u3066\u3001\u3053\u3053\u304b\u3089\u304c\u672c\u984c\uff01\n\u30bf\u30a4\u30e0\u30e9\u30d7\u30b9\u306f\u30af\u30ec\u30a4\u30a2\u30cb\u30e1\u306a\u306e\u3067\u3001\n\u6b21\u306e\u624b\u9806\u3067\u666e\u901a\u306e\u52d5\u753b\u3092\u30bf\u30a4\u30e0\u30e9\u30d7\u30b9\u306b\u5909\u63db\u3057\u307e\u3059\u3002\n\n1. \u65e2\u5b58\u306e\u52d5\u753b\u304b\u3089\u4e00\u5b9a\u9593\u9694\u3067\u30ad\u30e3\u30d7\u30c1\u30e3\u3092\u5207\u308a\u51fa\u3059\u3002\n2. \u5207\u308a\u51fa\u3057\u305f\u30ad\u30e3\u30d7\u30c1\u30e3\u3092\u307e\u305f\u7e4b\u3052\u308b\u3002\n\n\u4ee5\u4e0a\u3067\u3059\uff01\u7c21\u5358\u3067\u3059\u306d\u3002\n\n\n##\u3055\u3063\u305d\u304f\u30b3\u30de\u30f3\u30c9\n\n###\u307e\u305a\u306f\u52d5\u753b\u306e\u9577\u3055\u3092\u8abf\u3079\u307e\u3059\u3002\n\u305a\u3089\u305a\u3089\u3063\u3068\u51fa\u3066\u304d\u307e\u3059\u304c\u3001\u50d5\u304c\u7528\u610f\u3057\u305f\u30c6\u30b9\u30c8\u7528\u306e\u52d5\u753b\u306f10:35\u3067\u3057\u305f\u3002\n\n```bash\n$ ffmpeg -i test.MOV \n\nffmpeg version 2.6.8 Copyright (c) 2000-2016 the FFmpeg developers\n\u3000\u3000\u3000\u3000\u3000\u3000\u301c\u4e2d\u7565\u301c\n  Duration: 00:10:35.50, start: 0.000000, bitrate: 8675 kb/s\n    Stream #0:0(eng): Video: h264 (Constrained Baseline) (avc1 / 0x31637661), yuvj420p(pc, smpte170m/bt709/bt709), 640x480, 7136 kb/s, 29.97 fps, 29.97 tbr, 30k tbn, 60k tbc (default)\n    Metadata:\n      creation_time   : 2016-03-16 10:03:11\n    Stream #0:1(eng): Audio: pcm_s16le (sowt / 0x74776F73), 48000 Hz, stereo, s16, 1536 kb/s (default)\n    Metadata:\n      creation_time   : 2016-03-16 10:03:11\n```\n\n\n\n###\u6b21\u306b\u3053\u306e\u52d5\u753b\u304b\u3089\u3001\uff11\u79d2\u304a\u304d\u306b\u30ad\u30e3\u30d7\u30c1\u30e3\u3092\u5207\u308a\u51fa\u3057\u307e\u3059\u3002\n\n```bash\nfor i in `seq 1 635`\ndo\n  ffmpeg -ss $i -i test.MOV -vframes 1 -f image2 ./out/test-`printf %04d $i`.jpg\ndone\n```\n\nffmpeg\u306e\u30aa\u30d7\u30b7\u30e7\u30f3\u306f\u4e0b\u8a18\u306e\u3088\u3046\u306b\u306a\u308a\u307e\u3059\u3002\n\n| \u30aa\u30d7\u30b7\u30e7\u30f3 | \u6982\u8981 |\n|---|---|---|\n|i|\u5165\u529b\u30d5\u30a1\u30a4\u30eb\u6307\u5b9a|\n|ss|\u4f55\u79d2\u76ee\u304b\u3089\u51e6\u7406\u3059\u308b\u304b|\n|vframes|\u4f55\u30d5\u30ec\u30fc\u30e0\u3092\u5bfe\u8c61\u306b\u3059\u308b\u304b|\n|image2|\u753b\u50cf\u3068\u3057\u3066\u51fa\u529b\u3059\u308b|\n\n\uff11\u79d2\u76ee\u304b\u3089\uff16\uff13\uff15\u79d2\u76ee\uff08\uff1d\uff11\uff10\u5206\uff13\uff15\u79d2\uff09\u307e\u3067\u3001\uff11\u79d2\u304a\u304d\u306b\u30ad\u30e3\u30d7\u30c1\u30e3\u3092\u5207\u308a\u51fa\u3057\u3001\n\u3055\u3089\u306b\u30bc\u30ed\u57cb\u3081\u306e\u9023\u756a\u3092\u3064\u3051\u3066\u4fdd\u5b58\u3057\u3066\u3044\u307e\u3059\u3002\n\n\n###\u6700\u5f8c\u306b\u753b\u50cf\u3092\u304f\u3063\u3064\u3051\u3066\u52d5\u753b\u306b\u3057\u307e\u3059\u3002\n\n```bash\nffmpeg -f image2 -r 15 -i ./out/test-%04d.jpg -r 15 -an -vcodec libx264 -pix_fmt yuv420p ./video-out/test-timeLapse.mp4\n```\n\n\u3053\u3053\u3067\u4f7f\u3063\u3066\u3044\u308bffmpeg\u306e\u30aa\u30d7\u30b7\u30e7\u30f3\n\n| \u30aa\u30d7\u30b7\u30e7\u30f3 | \u5024 | \u6982\u8981 |\n|---|---|---|\n|f|image2|\u5165\u529b\u304cjpeg\b\u753b\u50cf\u3067\u3042\u308b\u3053\u3068\u3092\u901a\u77e5|\n|r\uff08\uff11\u3064\u76ee\uff09|15|\u5165\u529b\u30d5\u30ec\u30fc\u30e0\u30ec\u30fc\u30c8\u306e\u6307\u5b9a\u3002\u9759\u6b62\u753b\u306e\u66f4\u65b0\u3092\u6bce\u79d215\u30d5\u30ec\u30fc\u30e0\u306b\u6307\u5b9a\u3002\u3053\u3053\u306e\u6570\u5b57\u3092\u5909\u66f4\u3059\u308c\u3070\u30bf\u30a4\u30e0\u30e9\u30d7\u30b9\u52d5\u753b\u306e\u30d5\u30ec\u30fc\u30e0\u30ec\u30fc\u30c8\u3092\u5909\u66f4\u3067\u304d\u308b\u305d\u3046\u3067\u3059\u3002|\n|i|./out/test-%04d.jpg|\u5165\u529b\u30d5\u30a1\u30a4\u30eb\u3002\u3053\u306e\u66f8\u304d\u65b9\u3067\u9023\u756a\u3067\u753b\u50cf\u3092\u8aad\u307f\u8fbc\u3093\u3067\u304f\u308c\u307e\u3059|\n|r\uff08\uff12\u3064\u76ee\uff09|15|\u51fa\u529b\u30d5\u30ec\u30fc\u30e0\u30ec\u30fc\u30c8\u306e\u6307\u5b9a\u3060\u305d\u3046\u3067\u3059\u304c\u3001\u8b0e\u3067\u3059|\n|an||\u30aa\u30fc\u30c7\u30a3\u30aa\u7121\u3057|\n|vcodec|libx264|\u30a8\u30f3\u30b3\u30fc\u30c0\u306fH.264\u3002|\n|pix_fmt|yuv420p|\u753b\u50cf\u5f62\u5f0f\u3092YUV\u5f62\u5f0f\u3067YUV420\u306b\u6307\u5b9a|\n\n\n##\u53c2\u8003\n\n\u4eca\u56de\u53c2\u8003\u306b\u3055\u305b\u3066\u3044\u305f\u3060\u3044\u305f\u30b5\u30a4\u30c8\u69d8\n\u3042\u308a\u304c\u3068\u3046\u3054\u3056\u3044\u307e\u3057\u305f\u3002\n\nhttp://blog.fumiz.me/2008/10/19/ffmpeg%E3%81%A7%E5%8B%95%E7%94%BB%E3%81%8B%E3%82%89%E7%94%BB%E5%83%8F%E3%82%92%E5%88%87%E3%82%8A%E5%87%BA%E3%81%99/\nhttp://qiita.com/riocampos/items/2f4fe927b5cf99aff767\n"}